<?xml version="1.0" encoding="utf-8"?>
<!-- Generator: Adobe Illustrator 24.0.1, SVG Export Plug-In . SVG Version: 6.00 Build 0)  -->
<svg version="1.1" id="Camada_1" xmlns="http://www.w3.org/2000/svg" xmlns:xlink="http://www.w3.org/1999/xlink" x="0px" y="0px"
	 viewBox="0 0 104 38" style="enable-background:new 0 0 104 38;" xml:space="preserve">
<style type="text/css">
	.st0{fill:#141414;}
	.st1{display:none;}
	.st2{font-family:'Metropolis-Black';}
	.st3{font-size:11.9804px;}
	.st4{font-family:'Metropolis-Regular';}
	.st5{font-size:3.7092px;}
</style>
<path class="st0" d="M8,3.7v27h13L20.1,37h-20V3.7H8z"/>
<path class="st0" d="M34.4,10.7c3.9,0,7,1.2,9.2,3.6c2.2,2.4,3.3,5.7,3.3,10c0,2.7-0.5,5.1-1.5,7.2c-1,2-2.4,3.6-4.3,4.7
	c-1.9,1.1-4.1,1.7-6.6,1.7c-3.9,0-6.9-1.2-9.2-3.6c-2.2-2.4-3.3-5.7-3.3-10c0-2.7,0.5-5.1,1.5-7.1c1-2,2.5-3.6,4.3-4.8
	C29.6,11.3,31.8,10.7,34.4,10.7z M34.4,16.3c-1.5,0-2.7,0.7-3.5,2c-0.8,1.3-1.2,3.3-1.2,6c0,2.8,0.4,4.8,1.1,6.1
	c0.8,1.3,1.9,1.9,3.5,1.9c1.5,0,2.7-0.6,3.5-1.9c0.8-1.3,1.2-3.3,1.2-6c0-2.8-0.4-4.8-1.2-6.1C37.1,16.9,36,16.3,34.4,16.3z"/>
<path class="st0" d="M65.8,10.7c3,0,5.4,1.2,7,3.6c1.6,2.4,2.4,5.7,2.4,10c0,2.6-0.4,5-1.2,7c-0.8,2-2,3.6-3.5,4.8
	c-1.5,1.2-3.3,1.7-5.4,1.7c-1.4,0-2.6-0.3-3.8-0.9c-1.1-0.6-2.1-1.4-2.9-2.4L58.1,37h-6.7V1.4L59,0.6v13.5c0.8-1.1,1.7-1.9,2.9-2.5
	C63.1,11,64.4,10.7,65.8,10.7z M63,32.3c3,0,4.5-2.7,4.5-8c0-3-0.4-5.1-1.1-6.3c-0.7-1.2-1.7-1.7-3.1-1.7c-1.7,0-3.1,1-4.3,3v10.6
	c0.5,0.8,1.1,1.4,1.7,1.8C61.4,32.1,62.2,32.3,63,32.3z"/>
<path class="st0" d="M91.1,10.7c3.9,0,7,1.2,9.2,3.6c2.2,2.4,3.3,5.7,3.3,10c0,2.7-0.5,5.1-1.5,7.2c-1,2-2.4,3.6-4.3,4.7
	c-1.9,1.1-4.1,1.7-6.6,1.7c-3.9,0-6.9-1.2-9.2-3.6c-2.2-2.4-3.3-5.7-3.3-10c0-2.7,0.5-5.1,1.5-7.1c1-2,2.5-3.6,4.3-4.8
	C86.3,11.3,88.5,10.7,91.1,10.7z M91.1,16.3c-1.5,0-2.7,0.7-3.5,2c-0.8,1.3-1.2,3.3-1.2,6c0,2.8,0.4,4.8,1.1,6.1
	c0.8,1.3,1.9,1.9,3.5,1.9c1.5,0,2.7-0.6,3.5-1.9c0.8-1.3,1.2-3.3,1.2-6c0-2.8-0.4-4.8-1.2-6.1C93.8,16.9,92.6,16.3,91.1,16.3z"/>
<text transform="matrix(1 0 0 1 1.4895 20.2633)" class="st1 st2 st3">Lucas Emmanuel</text>
<text transform="matrix(1 0 0 1 2.7718 25.393)" class="st1 st4 st5">DEV. FRONT END &amp; DESIGNER GRÁFICO</text>
</svg>
